<?xml version="1.0" encoding="UTF-8"?>
<svg id="katman_1" xmlns="http://www.w3.org/2000/svg" version="1.1" viewBox="0 0 16 16">
  <!-- Generator: Adobe Illustrator 29.3.1, SVG Export Plug-In . SVG Version: 2.1.0 Build 151)  -->
  <defs>
    <style>
      .st0 {
        fill: #089e0c;
      }
    </style>
  </defs>
  <path class="st0" d="M7,1.7c0-.9,1-1.7,1.9-1.4h.3c.5.2.9.5,1,1,.2.8.5,2.5,0,4.5.1,0,.3,0,.4,0,.7,0,1.7,0,2.5.2.5.2,1,.7,1.2,1.3.2.5.2,1.2-.2,1.7,0,.1.1.2.1.4,0,.3.1.6.1.9s0,.6-.1.9c0,.1,0,.3-.2.4.2.4.1.8,0,1.1-.1.3-.3.6-.5.9,0,.2,0,.3,0,.5,0,.3,0,.6-.3.9-.3.6-1,1.1-1.9,1.1h-3.5c-.6,0-1.1,0-1.5-.2-.3-.1-.7-.3-1-.5h0c-.5-.3-1-.6-2.1-.8-.8,0-1.4-.7-1.4-1.5v-4c0-.9.7-1.4,1.4-1.6.8-.2,1.6-.8,2.1-1.4.6-.6.9-1.3,1-1.6.2-.6.4-1.5.4-2.6h0Z"/>
</svg>